<svg width="651" height="271" viewBox="0 0 651 271" fill="none" xmlns="http://www.w3.org/2000/svg">
<ellipse cx="256.433" cy="98.5672" rx="63.4328" ry="61.5672" fill="#60A5FA"/>
<path d="M43.4375 155C46.6875 155 49.5417 154.875 52 154.625C54.4583 154.375 56.6042 153.917 58.4375 153.25C60.3125 152.542 61.9167 151.583 63.25 150.375C64.5833 149.125 65.7292 147.521 66.6875 145.562C67.6458 143.604 68.4583 141.229 69.125 138.438C69.8333 135.604 70.4583 132.25 71 128.375H75.375L74 160H4.0625V155H16.5625V74.1875H4.0625V69.1875H41.25V74.1875H28.75V155H43.4375ZM126.5 111.75H117.438V106.75H137.75V155H147.125V160H126.5V152H126.25C124.417 155.333 122.146 157.792 119.438 159.375C116.729 160.958 113.229 161.75 108.938 161.75C102.979 161.75 98.5417 160.312 95.625 157.438C92.75 154.521 91.3125 150.292 91.3125 144.75V111.75H82.25V106.75H102.562V146.625C102.562 150 103.333 152.438 104.875 153.938C106.458 155.396 108.708 156.125 111.625 156.125C113.667 156.125 115.583 155.75 117.375 155C119.208 154.208 120.792 152.938 122.125 151.188C123.5 149.438 124.562 147.146 125.312 144.312C126.104 141.479 126.5 138 126.5 133.875V111.75ZM200.938 155H211.188V160H181.562V155H187.688L177.688 139.812L165.938 155H173.312V160H149.312V155H159.375L174.625 135.188L159.188 111.75H150.25V106.75H178.938V111.75H172.438L182.375 126.812L194 111.75H186.688V106.75H210.312V111.75H200.562L185.438 131.438L200.938 155ZM217.812 132.812H222.188C222.646 137.562 223.562 141.521 224.938 144.688C226.312 147.854 228 150.375 230 152.25C232.042 154.125 234.354 155.458 236.938 156.25C239.562 157 242.333 157.375 245.25 157.375C248.75 157.375 251.729 156.938 254.188 156.062C256.688 155.188 258.729 153.979 260.312 152.438C261.938 150.854 263.104 148.979 263.812 146.812C264.562 144.604 264.938 142.188 264.938 139.562C264.938 136.312 264.396 133.646 263.312 131.562C262.229 129.438 260.708 127.646 258.75 126.188C256.833 124.688 254.521 123.396 251.812 122.312C249.104 121.229 246.125 120.104 242.875 118.938C239.625 117.771 236.521 116.542 233.562 115.25C230.646 113.958 228.062 112.354 225.812 110.438C223.562 108.521 221.771 106.188 220.438 103.438C219.146 100.646 218.5 97.1875 218.5 93.0625C218.5 89.1875 219.125 85.6458 220.375 82.4375C221.625 79.2292 223.479 76.5 225.938 74.25C228.396 71.9583 231.438 70.1875 235.062 68.9375C238.729 67.6875 242.979 67.0625 247.812 67.0625C249.729 67.0625 251.708 67.1667 253.75 67.375C255.792 67.5417 257.812 67.8125 259.812 68.1875C261.854 68.5625 263.854 69.0208 265.812 69.5625C267.771 70.0625 269.625 70.625 271.375 71.25L272.125 93.9375H267.75C267.375 89.4375 266.542 85.7708 265.25 82.9375C263.958 80.1042 262.375 77.8958 260.5 76.3125C258.667 74.6875 256.604 73.5833 254.312 73C252.062 72.375 249.75 72.0625 247.375 72.0625C244.208 72.0625 241.458 72.4583 239.125 73.25C236.792 74 234.854 75.1042 233.312 76.5625C231.771 77.9792 230.604 79.7292 229.812 81.8125C229.062 83.8542 228.688 86.1667 228.688 88.75C228.688 91.8333 229.229 94.3958 230.312 96.4375C231.396 98.4792 232.917 100.25 234.875 101.75C236.875 103.208 239.25 104.521 242 105.688C244.792 106.812 247.854 108 251.188 109.25C254.229 110.417 257.208 111.667 260.125 113C263.083 114.292 265.708 115.938 268 117.938C270.333 119.896 272.208 122.333 273.625 125.25C275.042 128.125 275.75 131.708 275.75 136C275.75 140.167 275.021 143.875 273.562 147.125C272.146 150.375 270.083 153.104 267.375 155.312C264.708 157.521 261.438 159.208 257.562 160.375C253.688 161.542 249.312 162.125 244.438 162.125C242.312 162.125 240.104 162.021 237.812 161.812C235.562 161.604 233.312 161.292 231.062 160.875C228.854 160.458 226.688 159.979 224.562 159.438C222.438 158.896 220.458 158.271 218.625 157.562L217.812 132.812ZM306.375 114.75H306.625C308.458 111.375 310.833 108.917 313.75 107.375C316.667 105.833 319.917 105.062 323.5 105.062C327.042 105.062 330.312 105.729 333.312 107.062C336.354 108.396 338.979 110.292 341.188 112.75C343.396 115.167 345.104 118.104 346.312 121.562C347.562 125.021 348.188 128.854 348.188 133.062C348.188 137.521 347.5 141.521 346.125 145.062C344.792 148.604 342.979 151.604 340.688 154.062C338.396 156.521 335.729 158.417 332.688 159.75C329.646 161.083 326.417 161.75 323 161.75C319.625 161.75 316.521 161.021 313.688 159.562C310.854 158.062 308.5 155.688 306.625 152.438H306.375V189.25H316.375V194.25H285.75V189.25H295.125V111.75H285.75V106.75H306.375V114.75ZM335.812 133.312C335.812 128.521 335.479 124.625 334.812 121.625C334.146 118.583 333.188 116.208 331.938 114.5C330.729 112.75 329.292 111.562 327.625 110.938C325.958 110.312 324.125 110 322.125 110C319.25 110 316.812 110.604 314.812 111.812C312.812 113.021 311.188 114.688 309.938 116.812C308.688 118.938 307.771 121.438 307.188 124.312C306.646 127.188 306.375 130.292 306.375 133.625C306.375 137.083 306.625 140.062 307.125 142.562C307.667 145.062 308.375 147.188 309.25 148.938C310.125 150.646 311.125 152.021 312.25 153.062C313.375 154.104 314.521 154.896 315.688 155.438C316.854 155.979 318 156.354 319.125 156.562C320.25 156.729 321.271 156.812 322.188 156.812C324.104 156.812 325.896 156.5 327.562 155.875C329.229 155.25 330.667 154.083 331.875 152.375C333.083 150.667 334.042 148.292 334.75 145.25C335.458 142.167 335.812 138.188 335.812 133.312ZM411.688 160C409.938 160.333 408.312 160.542 406.812 160.625C405.312 160.708 404.125 160.75 403.25 160.75C401.042 160.75 399.208 160.562 397.75 160.188C396.333 159.854 395.208 159.354 394.375 158.688C393.542 158.021 392.938 157.208 392.562 156.25C392.188 155.292 391.958 154.229 391.875 153.062H391.562C390.396 154.688 389.146 156.062 387.812 157.188C386.479 158.312 385.083 159.208 383.625 159.875C382.167 160.542 380.667 161.021 379.125 161.312C377.625 161.604 376.104 161.75 374.562 161.75C372.021 161.75 369.75 161.396 367.75 160.688C365.75 160.021 364.062 159.062 362.688 157.812C361.312 156.562 360.271 155.083 359.562 153.375C358.854 151.625 358.5 149.708 358.5 147.625C358.5 141.833 361.333 137.438 367 134.438C372.708 131.396 380.917 129.771 391.625 129.562C391.667 127.688 391.688 126 391.688 124.5C391.729 123 391.75 121.521 391.75 120.062C391.75 116.271 390.958 113.625 389.375 112.125C387.833 110.583 385.375 109.812 382 109.812C379.75 109.812 377.729 110.062 375.938 110.562C374.188 111.062 372.75 111.729 371.625 112.562C372.625 113.521 373.354 114.542 373.812 115.625C374.312 116.667 374.562 117.708 374.562 118.75C374.562 120.5 374 121.958 372.875 123.125C371.75 124.292 370.208 124.875 368.25 124.875C367.417 124.875 366.604 124.75 365.812 124.5C365.021 124.25 364.333 123.854 363.75 123.312C363.167 122.771 362.688 122.104 362.312 121.312C361.979 120.479 361.812 119.521 361.812 118.438C361.812 116.729 362.271 115.083 363.188 113.5C364.146 111.875 365.542 110.438 367.375 109.188C369.25 107.938 371.562 106.938 374.312 106.188C377.104 105.438 380.354 105.062 384.062 105.062C387.062 105.062 389.708 105.354 392 105.938C394.333 106.521 396.292 107.5 397.875 108.875C399.5 110.208 400.708 112 401.5 114.25C402.333 116.5 402.75 119.292 402.75 122.625C402.75 123.458 402.729 124.833 402.688 126.75C402.688 128.625 402.667 130.708 402.625 133C402.583 135.292 402.542 137.625 402.5 140C402.5 142.333 402.5 144.396 402.5 146.188C402.5 148.021 402.542 149.562 402.625 150.812C402.708 152.021 402.917 153 403.25 153.75C403.583 154.458 404.083 154.979 404.75 155.312C405.417 155.604 406.354 155.75 407.562 155.75C408.604 155.75 409.979 155.625 411.688 155.375V160ZM391.625 134.25C387.083 134.375 383.417 134.729 380.625 135.312C377.833 135.854 375.667 136.646 374.125 137.688C372.583 138.688 371.542 139.917 371 141.375C370.458 142.833 370.188 144.5 370.188 146.375C370.188 149.625 370.854 152.062 372.188 153.688C373.562 155.271 375.438 156.062 377.812 156.062C379.104 156.062 380.542 155.792 382.125 155.25C383.75 154.708 385.271 153.833 386.688 152.625C388.104 151.375 389.271 149.75 390.188 147.75C391.146 145.75 391.625 143.271 391.625 140.312V134.25ZM469.062 142.688C467.688 148.979 465.104 153.729 461.312 156.938C457.562 160.146 452.688 161.75 446.688 161.75C442.521 161.75 438.771 161.021 435.438 159.562C432.146 158.062 429.333 156.042 427 153.5C424.708 150.958 422.938 148 421.688 144.625C420.438 141.25 419.812 137.667 419.812 133.875C419.812 129.917 420.458 126.188 421.75 122.688C423.083 119.188 424.958 116.146 427.375 113.562C429.792 110.938 432.688 108.875 436.062 107.375C439.479 105.833 443.271 105.062 447.438 105.062C450.396 105.062 453.104 105.458 455.562 106.25C458.062 107 460.208 108.021 462 109.312C463.792 110.604 465.188 112.104 466.188 113.812C467.188 115.521 467.688 117.312 467.688 119.188C467.688 120.521 467.458 121.646 467 122.562C466.542 123.438 465.958 124.146 465.25 124.688C464.583 125.229 463.833 125.625 463 125.875C462.167 126.125 461.375 126.25 460.625 126.25C458.583 126.25 456.958 125.604 455.75 124.312C454.583 123.021 454 121.479 454 119.688C454 118.604 454.271 117.438 454.812 116.188C455.354 114.938 456.188 113.771 457.312 112.688C455.896 111.562 454.25 110.812 452.375 110.438C450.542 110.021 448.854 109.812 447.312 109.812C445.354 109.812 443.458 110.083 441.625 110.625C439.833 111.125 438.229 112.229 436.812 113.938C435.438 115.604 434.333 118 433.5 121.125C432.667 124.25 432.25 128.417 432.25 133.625C432.25 138.458 432.625 142.375 433.375 145.375C434.167 148.375 435.229 150.729 436.562 152.438C437.938 154.104 439.542 155.25 441.375 155.875C443.208 156.458 445.208 156.75 447.375 156.75C449.333 156.75 451.188 156.479 452.938 155.938C454.688 155.396 456.271 154.542 457.688 153.375C459.146 152.167 460.417 150.604 461.5 148.688C462.625 146.729 463.521 144.333 464.188 141.5C465.021 141.583 465.854 141.729 466.688 141.938C467.521 142.146 468.312 142.396 469.062 142.688ZM528.188 143.062C526.854 149.104 524.271 153.729 520.438 156.938C516.604 160.146 511.625 161.75 505.5 161.75C501.292 161.75 497.542 161.021 494.25 159.562C490.958 158.062 488.167 156.042 485.875 153.5C483.583 150.958 481.833 148 480.625 144.625C479.417 141.208 478.812 137.583 478.812 133.75C478.812 129.833 479.438 126.125 480.688 122.625C481.938 119.125 483.708 116.083 486 113.5C488.333 110.917 491.104 108.875 494.312 107.375C497.562 105.833 501.188 105.062 505.188 105.062C508.854 105.062 512.146 105.708 515.062 107C517.979 108.292 520.458 110.104 522.5 112.438C524.542 114.729 526.104 117.479 527.188 120.688C528.312 123.896 528.917 127.417 529 131.25H491.312C491.271 131.958 491.25 132.438 491.25 132.688C491.25 132.896 491.25 133.021 491.25 133.062C491.25 137.979 491.604 141.979 492.312 145.062C493.062 148.146 494.083 150.562 495.375 152.312C496.708 154.021 498.271 155.188 500.062 155.812C501.896 156.438 503.917 156.75 506.125 156.75C508.167 156.75 510.083 156.479 511.875 155.938C513.708 155.396 515.354 154.542 516.812 153.375C518.271 152.167 519.542 150.625 520.625 148.75C521.75 146.833 522.646 144.542 523.312 141.875C524.146 141.958 524.979 142.104 525.812 142.312C526.646 142.521 527.438 142.771 528.188 143.062ZM516.375 126.375C516.25 122.917 515.875 120.125 515.25 118C514.667 115.833 513.875 114.146 512.875 112.938C511.875 111.729 510.688 110.917 509.312 110.5C507.979 110.042 506.5 109.812 504.875 109.812C503.167 109.812 501.562 110.062 500.062 110.562C498.604 111.062 497.292 111.938 496.125 113.188C494.958 114.438 493.979 116.125 493.188 118.25C492.438 120.375 491.917 123.083 491.625 126.375H516.375Z" fill="black"/>
</svg>
